<?xml version="1.0" encoding="UTF-8" standalone="no"?>
<!-- <span class="lol"> -->

<svg
   xmlns:dc="http://purl.org/dc/elements/1.1/"
   xmlns:cc="http://creativecommons.org/ns#"
   xmlns:rdf="http://www.w3.org/1999/02/22-rdf-syntax-ns#"
   xmlns:svg="http://www.w3.org/2000/svg"
   xmlns="http://www.w3.org/2000/svg"
   xmlns:sodipodi="http://sodipodi.sourceforge.net/DTD/sodipodi-0.dtd"
   xmlns:inkscape="http://www.inkscape.org/namespaces/inkscape"
   id="Untitled-Page%201"
   viewBox="0 0 1116 1017"
   style="background-color:#ffffff00"
   version="1.1"
   xlink="http://www.w3.org/1999/xlink"
   xml:space="preserve"
   preserveAspectRatio="xMinYMax slice"
   x="0px"
   y="0px"
   width="60px"
   height="60px"
   inkscape:version="0.91 r13725"
   sodipodi:docname="github.svg"><metadata
   id="metadata1085"><rdf:RDF><cc:Work
       rdf:about=""><dc:format>image/svg+xml</dc:format><dc:type
         rdf:resource="http://purl.org/dc/dcmitype/StillImage" /></cc:Work></rdf:RDF></metadata><sodipodi:namedview
   pagecolor="#ffffff"
   bordercolor="#666666"
   borderopacity="1"
   objecttolerance="10"
   gridtolerance="10"
   guidetolerance="10"
   inkscape:pageopacity="0"
   inkscape:pageshadow="2"
   inkscape:window-width="1440"
   inkscape:window-height="799"
   id="namedview1083"
   showgrid="false"
   inkscape:zoom="7.4257619"
   inkscape:cx="15.392181"
   inkscape:cy="50.324908"
   inkscape:window-x="0"
   inkscape:window-y="1"
   inkscape:window-maximized="1"
   inkscape:current-layer="Untitled-Page%201" /><defs
   id="defs3"><linearGradient
     id="gradient1"
     x1="50.0011%"
     y1="100%"
     x2="50.0011%"
     y2="0%"><stop
       stop-color="#d5d5d5"
       stop-opacity="0"
       offset="38%"
       id="stop6" /><stop
       stop-color="#d5d5d5"
       stop-opacity="1"
       offset="99%"
       id="stop8" /></linearGradient><filter
     id="filter1"
     x="-100%"
     y="-100%"
     width="300%"
     height="300%"><!-- Glow --><feColorMatrix
       result="out"
       in="SourceGraphic"
       type="matrix"
       values="0 0 0 0.0863 0  0 0 0 0.1882 0  0 0 0 0.2627 0  0 0 0 0.651 0"
       id="feColorMatrix11" /><feMorphology
       result="out"
       in="out"
       operator="dilate"
       radius="1"
       id="feMorphology13" /><feGaussianBlur
       result="out"
       in="out"
       stdDeviation="0"
       id="feGaussianBlur15" /><feBlend
       in="SourceGraphic"
       in2="out"
       mode="normal"
       result="Glow1"
       id="feBlend17" /></filter></defs><g
   id="github-logo"
   transform="translate(-444,-0.53866583)"><path
     style="fill:#070705;fill-opacity:1"
     d="m 449,5.4609375 c -3.8073,0 -5,1.1929 -5,5.0000005 l 0,50 c 0,3.807099 1.1927,5 5,5 l 50,0 c 3.8073,0 5,-1.1929 5,-5 l 0,-50 c 0,-3.8071005 -1.1927,-5.0000005 -5,-5.0000005 l -50,0 z m 41.07812,8.7460935 c 0.64081,0 0.83901,0.245533 1.14454,1.427735 0.41379,1.601075 0.45126,4.199077 0.0742,5.136718 -0.17413,0.432952 0.0807,1.151211 0.85156,2.398438 1.40407,2.271777 1.74967,3.516525 1.75195,6.320312 0.006,7.119583 -3.41658,11.346072 -10.41601,12.863282 l -2.42774,0.527343 0.73047,0.960938 c 0.67156,0.88385 0.74274,1.418122 0.89453,6.695312 0.0907,3.15484 0.28554,5.854437 0.43359,5.998047 0.84555,0.8201 -9.10951,1.366095 -12.82031,0.703125 l -1.66015,-0.296875 0.13085,-3.167968 0.13086,-3.169922 -2.75976,0.01172 c -1.51774,0.006 -3.13954,-0.138805 -3.60352,-0.322265 -1.50739,-0.59605 -2.94831,-2.036814 -3.80859,-3.808594 -0.52327,-1.07767 -1.45433,-2.239073 -2.45899,-3.064453 -0.88958,-0.73082 -1.52786,-1.469318 -1.41796,-1.642578 0.1099,-0.17325 0.86106,-0.242907 1.66796,-0.154297 1.6097,0.17678 2.91161,1.150462 4.23829,3.169922 0.85249,1.29765 3.10896,2.532107 4.625,2.529297 0.53257,-9.6e-4 1.50891,-0.149245 2.16992,-0.328125 1.0074,-0.27263 1.23468,-0.50081 1.41015,-1.41211 0.11513,-0.59795 0.50214,-1.450088 0.85938,-1.892578 l 0.65039,-0.804687 -2.39063,-0.519532 c -5.77825,-1.25576 -8.64862,-3.774459 -9.98242,-8.763672 -0.56279,-2.105167 -0.64555,-5.829912 -0.16601,-7.511718 0.17855,-0.626195 0.81501,-1.931143 1.41406,-2.900391 0.8106,-1.311561 1.03083,-1.967643 0.86133,-2.560547 -0.70568,-2.468382 0.0156,-6.190236 1.23242,-6.359375 0.94827,-0.131814 4.24027,1.026295 5.82617,2.048828 1.2368,0.797439 1.36177,0.81384 2.99219,0.414063 2.1893,-0.536823 8.79589,-0.537386 10.98047,-0.002 1.64177,0.40268 1.73757,0.386367 3.30078,-0.541016 1.79391,-1.064262 4.36107,-1.982422 5.54101,-1.982422 z m -32.47656,27.972657 c -0.18151,0 -0.33008,0.143472 -0.33008,0.320312 0,0.17683 0.14858,0.322266 0.33008,0.322266 0.1815,0 0.33008,-0.145436 0.33008,-0.322266 0,-0.17684 -0.14859,-0.320312 -0.33008,-0.320312 z m 1.00782,1.007812 c -0.0936,-0.01158 -0.17919,0.0049 -0.23829,0.0625 -0.23637,0.23032 0.18096,0.857422 0.57032,0.857422 0.17078,0 0.31054,-0.136334 0.31054,-0.302734 0,-0.284513 -0.36183,-0.582434 -0.64257,-0.617188 z m 1.15624,1.369141 c -0.18228,-0.0108 -0.23661,0.241518 -0.0625,0.683593 0.1119,0.28409 0.36116,0.422011 0.55274,0.306641 0.23924,-0.14405 0.22502,-0.354995 -0.0449,-0.671875 -0.17981,-0.211091 -0.33595,-0.311877 -0.44532,-0.318359 z m 1.49805,1.515625 c -0.0968,-0.01318 -0.18752,0.0097 -0.25976,0.08008 -0.27147,0.26449 0.15181,1.169922 0.54687,1.169922 0.1872,0 0.3418,-0.208071 0.3418,-0.462891 0,-0.384045 -0.3386,-0.747575 -0.62891,-0.787109 z m 1.9336,1.332031 c -0.11178,-0.0017 -0.22186,0.02275 -0.32032,0.08203 -0.18446,0.11107 -0.2509,0.337333 -0.14648,0.501953 0.24773,0.39052 1.14062,0.389027 1.14062,-0.002 l 0,-0.002 c 0,-0.325628 -0.33849,-0.575116 -0.67382,-0.580078 z m 4.63476,0.08008 c -0.242,0 -0.50249,0.181304 -0.57812,0.402344 -0.0818,0.23908 0.1528,0.40039 0.57812,0.40039 0.42533,0 0.65993,-0.16131 0.57813,-0.40039 -0.0756,-0.22104 -0.33613,-0.402344 -0.57813,-0.402344 z M 465.75,47.695312 c -0.44972,0.0028 -0.91253,0.293609 -0.72461,0.589844 0.25793,0.40661 1.05477,0.422441 1.30664,0.02539 0.10442,-0.16462 0.033,-0.395419 -0.16015,-0.511719 -0.1221,-0.07352 -0.27197,-0.104461 -0.42188,-0.103516 z"
     transform="translate(-3.2823348e-6,0.53866583)"
     id="path447"
     inkscape:connector-curvature="0" /><path
     d="m 504,61 0,-50 c 0,-3.8071 -1.1927,-5 -5,-5 l -50,0 -0.245,0 54.9,57.7197 C 503.8983,63.0156 504,62.1216 504,61 Z"
     id="path453"
     inkscape:connector-curvature="0"
     style="opacity:0.25100002;fill:#1f456b" /></g> --&gt;

  <!-- Original: --><!-- <g id="passport">
  <path d="M659.3527 41.2817C662.3706 38.2637 667.282 38.2822 670.3226 41.3228L681.3334 52.3335C684.3739 55.374 684.3922 60.2852 681.3741 63.3032L567.3032 177.374C564.2853 180.3921 559.3739 180.374 556.3334 177.3335L545.3226 166.3228C542.282 163.2822 542.2638 158.3706 545.2817 155.3525L659.3527 41.2817Z" fill="#e2ded5"/>
  <path d="M651.7828 33.7119C654.8007 30.6938 654.7825 25.7827 651.7419 22.7417L640.7312 11.731C637.6906 8.6904 632.7792 8.6724 629.7612 11.6904L515.6903 125.7612C512.6724 128.7793 512.6906 133.6904 515.7312 136.731L526.7419 147.7417C529.7825 150.7827 534.6938 150.8008 537.7119 147.7827L651.7828 33.7119Z" fill="#e2ded5"/>
  <path d="M664.4734 35.4727L671.011 42.0103 546.011 167.0103 539.4734 160.4727 664.4734 35.4727Z" fill="#e2ded5"/>
  <path d="M651.054 22.0537L657.5917 28.5913 532.5917 153.5913 526.0541 147.0532 651.054 22.0537Z" fill="#e2ded5"/>
  <path d="M654.8517 29.2666L664.1421 38.5566 542.5574 160.1416 533.2671 150.8511 654.8517 29.2666Z" fill="#e2ded5"/>
  <path d="M623.2853 21.6069L624.6616 22.9834 615.0988 32.5464 613.7224 31.1699 623.2853 21.6069Z" fill="#cfc3b3"/>
  <path d="M536.5826 120.6968L537.959 122.0732 535.5684 124.4639 534.192 123.0874 536.5826 120.6968Z" fill="#cfc3b3"/>
  <path d="M643.8615 23.7407L645.2378 25.1172 533.5575 136.7974 532.1812 135.4209 643.8615 23.7407Z" fill="#f0b374"/>
  <path d="M531.1412 132.332L534.582 135.7729 533.5575 136.7974 530.1166 133.3564 531.1412 132.332Z" fill="#f0b374"/>
  <path d="M662.098 41.9771L663.4744 43.3535 551.7941 155.0337 550.4177 153.6577 662.098 41.9771Z" fill="#f0b374"/>
  <path d="M549.3778 150.5684L552.8186 154.0093 551.7941 155.0337 548.3531 151.5933 549.3778 150.5684Z" fill="#f0b374"/>
  <path d="M677.5819 57.4609L678.9583 58.8374 627.7288 110.0669 626.3524 108.6904 677.5819 57.4609Z" fill="#f0b374"/>
  <path d="M594.8932 129.8271L596.2696 131.2036 562.1166 165.3564 560.7402 163.98 594.8932 129.8271Z" fill="#f0b374"/>
  <path d="M559.0122 160.2026L562.453 163.6436 561.4285 164.6685 557.9875 161.2275 559.0122 160.2026Z" fill="#f0b374"/>
  <path d="M524.9247 119.9678L526.301 121.3442 522.2026 125.4424 520.8263 124.0664 524.9247 119.9678Z" fill="#cfc3b3"/>
  <path d="M530.4351 126.8442L531.8115 128.2207 528.3962 131.6362 527.0198 130.2598 530.4351 126.8442Z" fill="#cfc3b3"/>
  <path d="M533.1674 124.1123L534.5437 125.4883 533.1776 126.8545 531.8013 125.4785 533.1674 124.1123Z" fill="#cfc3b3"/>
  <path d="M548.3276 144.7368L549.704 146.1133 546.2887 149.5283 544.9124 148.1523 548.3276 144.7368Z" fill="#cfc3b3"/>
  <path d="M558.9943 155.4033L560.3706 156.7798 556.9553 160.1953 555.579 158.8188 558.9943 155.4033Z" fill="#cfc3b3"/>
  <path d="M530.2246 116.3882L535.2139 121.3774 580.1171 166.2808C583.5721 169.7358 585.2578 169.7422 588.6871 166.313L669.9714 85.0283C673.4005 81.5996 673.3945 79.9136 669.9395 76.4585L625.0362 31.5552 620.0469 26.5659 610.2405 16.7593 520.4181 106.582 530.2246 116.3882Z" fill="#1b3b52"/>
  <path d="M532.8313 114.897L537.5792 119.645 580.3096 162.3755C583.5975 165.6631 585.2043 165.6665 588.4771 162.394L666.0525 84.8184C669.3253 81.5459 669.3215 79.9395 666.0337 76.6514L623.3032 33.9209 618.5554 29.1729 609.2234 19.8413 523.4994 105.5649 532.8313 114.897Z" stroke="#16354a" stroke-width="1" fill="#1b3b52"/>
  <path d="M605.221 49.9922L597.7071 57.5036 598.7394 58.5362 601.4717 55.8048 602.2137 56.547C602.7675 57.101 603.4167 57.3982 604.1721 57.4281 604.9221 57.4633 605.5533 57.2302 606.0603 56.7233L607.1756 55.6084C607.6986 55.0856 607.9696 54.4921 607.9885 53.828 607.9913 53.1263 607.705 52.477 607.1189 51.8908L605.221 49.9922 605.221 49.9922ZM604.9586 55.7601C604.7558 55.9628 604.4937 56.0528 604.1883 56.0355 603.8776 56.0235 603.6093 55.8939 603.3781 55.6626L602.4963 54.7806 605.2287 52.0491 606.1104 52.9312C606.3631 53.184 606.498 53.4577 606.5098 53.747 606.5216 54.0363 606.4261 54.293 606.2074 54.5117L604.9586 55.7601 604.9586 55.7601Z" fill="#bd9756"/>
  <path d="M606.0279 62.4118L604.6105 64.4093 605.6643 65.4635 611.8932 56.6667 610.3072 55.0801 601.4922 61.2899 602.5406 62.3387 604.544 60.9274 606.0279 62.4118 606.0279 62.4118ZM606.7407 61.0756L605.8858 60.2204 609.4432 57.5245 606.7407 61.0756 606.7407 61.0756Z" fill="#bd9756"/>
  <path d="M612.5106 67.1036C612.5583 66.9484 612.6058 66.7719 612.6586 66.5685 612.7534 66.1297 612.7783 65.6209 612.7386 65.0369 612.7272 64.8547 612.6831 64.5117 612.6009 64.0025 612.5243 63.5737 612.4908 63.2308 612.5006 62.9737 612.5088 62.2988 612.6891 61.796 613.0253 61.4599 613.2387 61.2466 613.4632 61.1189 613.7148 61.0717 614.0092 61.014 614.2827 61.1062 614.5193 61.3428 614.7397 61.5633 614.8584 61.7888 614.8753 62.0085 614.8978 62.3085 614.8026 62.6081 614.5894 62.8965L616.002 63.9467C616.2686 63.6157 616.4494 63.2629 616.5391 62.883 616.6234 62.5084 616.6166 62.1387 616.5081 61.774 616.3618 61.3074 616.0815 60.8564 615.6622 60.4369 615.2159 59.9905 614.7382 59.7261 614.2397 59.633 613.4089 59.4957 612.66 59.7605 611.9983 60.422 611.6248 60.7954 611.3746 61.2283 611.2479 61.7313 611.1371 62.1861 611.1073 62.7966 611.1744 63.5682 611.2528 64.4791 611.3196 65.165 611.3642 65.6152 611.3718 66.2312 611.2289 66.6966 610.9301 66.9954 610.7166 67.2088 610.5135 67.3258 610.3262 67.3625 609.9301 67.4359 609.603 67.3435 609.3396 67.0907 609.1407 66.9131 609.0434 66.677 609.0477 66.3932 609.041 66.0128 609.2215 65.585 609.5893 65.1098L608.3748 64.0443C608.0067 64.4553 607.7458 64.8881 607.5922 65.332 607.4331 65.7706 607.3865 66.2043 607.4631 66.6224 607.5453 67.1316 607.8096 67.6094 608.2612 68.0612 608.4977 68.2978 608.7395 68.4863 608.9756 68.6158 609.4158 68.8533 609.85 68.9461 610.2783 68.8836 610.9207 68.8005 611.4928 68.5082 611.9998 67.9907 612.1971 67.7826 612.3674 67.4833 612.5106 67.1036L612.5106 67.1036Z" fill="#bd9756"/>
  <path d="M616.9839 71.5783C617.0316 71.4231 617.0791 71.2466 617.1319 71.0433 617.2267 70.6044 617.2516 70.0956 617.2119 69.5116 617.2005 69.3295 617.1564 68.9865 617.0741 68.4773 616.9976 68.0484 616.9641 67.7055 616.9739 67.4484 616.9821 66.7735 617.1623 66.2708 617.4985 65.9347 617.712 65.7213 617.9365 65.5936 618.188 65.5465 618.4824 65.4887 618.756 65.5809 618.9926 65.8175 619.213 66.0381 619.3317 66.2635 619.3485 66.4832 619.3711 66.7832 619.2758 67.0828 619.0626 67.3712L620.4753 68.4214C620.7419 68.0904 620.9227 67.7376 621.0123 67.3577 621.0966 66.9831 621.0899 66.6135 620.9814 66.2488 620.835 65.7822 620.5548 65.3311 620.1354 64.9116 619.6892 64.4652 619.2115 64.2008 618.713 64.1077 617.8822 63.9704 617.1333 64.2352 616.4716 64.8967 616.098 65.2701 615.8478 65.703 615.7212 66.206 615.6104 66.6609 615.5805 67.2714 615.6477 68.043 615.7261 68.9539 615.7929 69.6398 615.8374 70.0899 615.8451 70.7059 615.7022 71.1714 615.4033 71.4701 615.1899 71.6835 614.9868 71.8005 614.7994 71.8372 614.4033 71.9106 614.0762 71.8182 613.8128 71.5654 613.614 71.3879 613.5167 71.1518 613.521 70.8679 613.5142 70.4876 613.6947 70.0598 614.0626 69.5845L612.848 68.519C612.48 68.93 612.2191 69.3628 612.0654 69.8068 611.9064 70.2454 611.8597 70.679 611.9363 71.0972 612.0186 71.6063 612.2828 72.0841 612.7344 72.5359 612.971 72.7726 613.2128 72.961 613.4489 73.0905 613.889 73.328 614.3232 73.4208 614.7515 73.3583 615.394 73.2752 615.9661 72.9829 616.473 72.4654 616.6704 72.2573 616.8407 71.958 616.9839 71.5783L616.9839 71.5783Z" fill="#bd9756"/>
  <path d="M623.114 67.8912L615.6001 75.4025 616.6324 76.4352 619.3647 73.7038 620.1067 74.446C620.6605 74.9999 621.3097 75.2972 622.0651 75.327 622.8151 75.3622 623.4463 75.1291 623.9533 74.6223L625.0687 73.5073C625.5916 72.9845 625.8626 72.391 625.8815 71.7269 625.8843 71.0252 625.598 70.3759 625.012 69.7897L623.114 67.8912 623.114 67.8912ZM622.8516 73.659C622.6489 73.8617 622.3867 73.9517 622.0813 73.9344 621.7706 73.9224 621.5023 73.7928 621.2711 73.5615L620.3893 72.6795 623.1217 69.9481 624.0034 70.8301C624.2562 71.0829 624.3911 71.3566 624.4028 71.6459 624.4147 71.9352 624.3192 72.1919 624.1004 72.4107L622.8516 73.659 622.8516 73.659Z" fill="#bd9756"/>
  <path d="M627.6287 73.432C626.9162 73.4023 626.3172 73.6356 625.8315 74.121L621.8291 78.1221C621.3435 78.6076 621.11 79.2066 621.1341 79.9137 621.1581 80.6209 621.4337 81.238 621.9605 81.7651 622.4821 82.2868 623.0991 82.5624 623.8116 82.5921 624.5241 82.6218 625.1232 82.3992 625.6142 81.9084L629.6166 77.9073C630.0969 77.4272 630.325 76.8229 630.3009 76.1157 630.2715 75.4032 630.0013 74.7807 629.4744 74.2537 628.9583 73.7374 628.3412 73.4617 627.6287 73.432L627.6287 73.432ZM624.5071 80.9505C624.3257 81.1319 624.085 81.2005 623.7902 81.1618 623.4954 81.1232 623.2325 80.9882 622.9959 80.7515 622.754 80.5095 622.6137 80.2411 622.5751 79.9464 622.5311 79.6462 622.6052 79.4108 622.7867 79.2294L626.9385 75.079C627.12 74.8976 627.3554 74.8236 627.6555 74.8676 627.9503 74.9063 628.2186 75.0467 628.4606 75.2887 628.6971 75.5253 628.832 75.7884 628.8706 76.0831 628.9092 76.3779 628.8405 76.6186 628.6591 76.8L624.5071 80.9505 624.5071 80.9505Z" fill="#bd9756"/>
  <path d="M632.4046 77.1848L624.8907 84.6962 625.923 85.7289 628.6553 82.9974 629.5693 83.9117C629.6177 83.9602 629.6768 83.9979 629.7572 84.0143L627.6973 87.5037 628.7618 88.5686 631.189 84.4325C632.0626 84.5807 632.7689 84.3907 633.3026 83.8573L634.3966 82.7636C634.9409 82.2195 635.2227 81.6582 635.2527 81.0798 635.2878 80.4211 634.9692 79.7503 634.3026 79.0834L632.4046 77.1848 632.4046 77.1848ZM632.1422 82.9527C631.9395 83.1554 631.6773 83.2454 631.3719 83.2281 631.0612 83.2161 630.7929 83.0865 630.5617 82.8552L629.68 81.9732 632.4123 79.2417 633.2941 80.1238C633.8532 80.6831 633.882 81.2135 633.391 81.7043L632.1422 82.9527 632.1422 82.9527Z" fill="#bd9756"/>
  <path d="M630.7404 90.5478L631.7726 91.5804 638.262 85.0933 639.6383 86.4702 640.663 85.4459 636.8779 81.6596 635.8533 82.6838 637.2297 84.0607 630.7404 90.5478 630.7404 90.5478Z" fill="#bd9756"/>
  <path filter="url(#filter1)" d="M562.2971 121.8213L569.5229 129.0469 565.083 133.4868 557.8572 126.2612 562.2971 121.8213Z" fill="#bd9756"/>
  <path d="M612.6493 19.168L613.6816 20.2002 523.8592 110.0225 522.8269 108.9902 612.6493 19.168Z" fill="#16354a"/>
  <path d="M590.4476 86.7891C594.5032 82.7334 601.1025 82.7583 605.1882 86.8438 609.274 90.9297 609.2988 97.5293 605.2433 101.5845 601.1874 105.6406 594.5884 105.6152 590.5026 101.5298 586.4169 97.4438 586.3917 90.8447 590.4476 86.7891ZM589.7594 86.1006C585.3266 90.5337 585.3536 97.7471 589.8195 102.2129 594.2853 106.6787 601.4987 106.7056 605.9315 102.2729 610.3643 97.8398 610.3373 90.627 605.8713 86.1606 601.4055 81.6948 594.1923 81.668 589.7594 86.1006Z" fill="#c19b5c"/>
  <path d="M589.9304 85.9297L606.1024 102.1021 605.4193 102.7852 589.2473 86.6128 589.9304 85.9297Z" fill="#c19b5c"/>
  <path d="M590.3329 102.0435L605.3604 87.0161C605.3604 87.0161 606.2088 94.6104 602.657 97.9741 599.1052 101.3384 597.3086 102.103 590.3329 102.0435Z" stroke="#c19b5c" stroke-width="1" fill="none"/>
  <path d="M590.3329 102.0435L605.3604 87.0161C605.3604 87.0161 597.7662 86.1675 594.4021 89.7192 591.0379 93.271 590.2731 95.0679 590.3329 102.0435Z" stroke="#c19b5c" stroke-width="1" fill="none"/>
  <path d="M586.8741 93.8032C586.8741 93.8032 592.4932 95.2378 594.7729 97.6035 597.0527 99.9688 598.229 105.1582 598.229 105.1582 598.229 105.1582 588.4611 105.6357 586.8741 93.8032Z" stroke="#c19b5c" stroke-width="1" fill="none"/>
  <path d="M597.5764 83.1011C597.5764 83.1011 599.0115 88.7197 601.3768 90.9995 603.7418 93.2798 608.9312 94.4561 608.9312 94.4561 608.9312 94.4561 609.4092 84.6875 597.5764 83.1011Z" stroke="#c19b5c" stroke-width="1" fill="none"/>
  <path d="M615.0049 99.3931L615.2635 99.7539 616.032 99.0542C616.032 99.0542 615.1194 95.6655 614.9897 95.2793 614.8595 94.8931 615.2047 95.4941 615.7208 96.0103 615.7208 96.0103 617.1442 98.5439 616.8055 99.5708 616.4941 100.5142 616.2892 101.0605 616.2574 101.144L616.728 101.7988C616.728 101.7988 618.3905 99.4482 617.3956 97.0024 616.401 94.5562 613.6106 93.2173 613.6106 93.2173 614.0883 94.8901 615.0049 99.3931 615.0049 99.3931Z" fill="#bd8f42"/>
  <path d="M613.183 103.4331L613.3573 103.855 614.2882 103.3242C614.2882 103.3242 614.1646 99.7046 614.1243 99.2861 614.0844 98.8677 614.2893 99.5513 614.6848 100.188 614.6848 100.188 615.5176 103.0625 614.9401 104.02 614.4103 104.8994 614.0782 105.4038 614.0273 105.4805L614.345 106.2466C614.345 106.2466 616.5522 104.2549 616.1271 101.5664 615.7026 98.877 613.2263 96.897 613.2263 96.897 613.3145 98.6904 613.183 103.4331 613.183 103.4331Z" fill="#bd8f42"/>
  <path d="M609.7009 106.8423L609.6737 107.2593 610.6111 107.1753C610.6111 107.1753 611.9182 104.1265 612.0487 103.7646 612.1796 103.4023 612.0753 104.0479 612.1393 104.7271 612.1393 104.7271 611.6786 107.4287 610.8532 108.002 610.0957 108.5283 609.6392 108.8193 609.5695 108.8633L609.5217 109.6206C609.5217 109.6206 612.0283 108.8145 612.7379 106.4219 613.4471 104.0298 612.27 101.4395 612.27 101.4395 611.6437 102.96 609.7009 106.8423 609.7009 106.8423Z" fill="#bd8f42"/>
  <path d="M604.9973 109.4092L604.8287 109.7847 605.7059 109.9873C605.7059 109.9873 607.9476 107.5688 608.1917 107.2744 608.4357 106.98 608.1171 107.5435 607.9392 108.188 607.9392 108.188 606.5844 110.5396 605.6384 110.8213 604.77 111.0796 604.2557 111.2119 604.177 111.2314L603.8711 111.9146C603.8711 111.9146 606.4198 111.9204 607.8925 109.9282 609.3652 107.9365 609.1989 105.1987 609.1989 105.1987 608.1039 106.4126 604.9973 109.4092 604.9973 109.4092Z" fill="#bd8f42"/>
  <path d="M616.7303 102.4849C616.4599 102.6191 616.2175 102.8608 616.0011 103.1621L619.1339 103.522 615.1387 104.9536C614.8372 105.8296 614.6891 106.5903 614.6891 106.5903 614.6891 106.5903 618.5807 104.5054 619.822 104.21 621.0638 103.9146 621.9199 103.7466 620.8469 103.1855 619.7734 102.6245 616.7303 102.4849 616.7303 102.4849Z" fill="#bd8f42"/>
  <path d="M614.2015 107.5928C613.9092 107.5684 613.5895 107.6509 613.262 107.7993L615.7316 109.6313 611.6409 108.9297C610.9341 109.563 610.4193 110.1792 610.4193 110.1792 610.4193 110.1792 614.8589 110.2017 615.9861 110.5142 617.067 110.814 617.7729 111.042 617.2003 110.1279 616.6118 109.187 614.2015 107.5928 614.2015 107.5928Z" fill="#bd8f42"/>
  <path d="M608.1253 111.1304C607.8693 111.0342 607.5518 111.0283 607.2081 111.0791L608.7513 113.5054 605.4519 111.6528C604.6824 112.0039 604.0835 112.3789 604.0835 112.3789 604.0835 112.3789 607.6807 113.7456 608.6333 114.4575 609.6176 115.1929 610.2872 115.7378 610.0602 114.5483 609.837 113.3784 608.1253 111.1304 608.1253 111.1304Z" fill="#bd8f42"/>
  <path d="M602.6571 111.5361C602.4249 111.3843 602.1111 111.3022 601.761 111.2666L602.63 113.9854 599.973 111.3657C599.2053 111.4917 598.5961 111.6729 598.5961 111.6729 598.5961 111.6729 601.4623 113.875 602.2272 114.8892 603.0723 116.0103 603.6691 116.8677 603.7609 115.5112 603.8484 114.2231 602.6571 111.5361 602.6571 111.5361Z" fill="#bd8f42"/>
  <path d="M602.265 111.3159C601.9998 111.395 601.6788 111.3867 601.335 111.3232L603.0605 109.0835 599.5936 110.7051C598.8346 110.3389 598.2469 109.9575 598.2469 109.9575 598.2469 109.9575 601.981 108.8052 603.0055 108.1582 604.073 107.4829 604.8081 106.9766 604.4813 108.1304 604.1635 109.2524 602.265 111.3159 602.265 111.3159Z" fill="#bd8f42"/>
  <path d="M594.4747 109.6006C594.4747 109.6006 602.0262 112.1997 606.4769 110.6733 610.9276 109.1475 614.3423 105.561 614.3423 105.561 614.3423 105.561 614.2598 106.4175 613.3202 107.271 612.3806 108.125 609.1738 109.9551 608.1896 110.3374 607.2054 110.7192 605.4742 111.8052 600.9945 111.3389 596.5148 110.8721 594.1334 109.9419 594.1334 109.9419L594.4747 109.6006Z" fill="#bd8f42"/>
  <path d="M592.2569 76.645L591.8962 76.3862 592.5959 75.6177C592.5959 75.6177 595.9844 76.5303 596.3707 76.6602 596.7567 76.7905 596.1557 76.4453 595.6395 75.9292 595.6395 75.9292 593.1059 74.5059 592.079 74.8442 591.1359 75.1558 590.5891 75.3608 590.5056 75.3926L589.851 74.9219C589.851 74.9219 592.2017 73.2593 594.6476 74.2544 597.0939 75.249 598.4326 78.0391 598.4326 78.0391 596.7597 77.5615 592.2569 76.645 592.2569 76.645Z" fill="#bd8f42"/>
  <path d="M588.2167 78.4668L587.7947 78.2925 588.3259 77.3618C588.3259 77.3618 591.9455 77.4854 592.3636 77.5259 592.7822 77.5654 592.0986 77.3604 591.4618 76.9653 591.4618 76.9653 588.5876 76.1323 587.6299 76.71 586.7507 77.2397 586.2462 77.5718 586.1695 77.6226L585.4036 77.3047C585.4036 77.3047 587.395 75.0977 590.0836 75.5229 592.7729 75.9473 594.7527 78.4238 594.7527 78.4238 592.9597 78.3354 588.2167 78.4668 588.2167 78.4668Z" fill="#bd8f42"/>
  <path d="M584.8077 81.9492L584.3907 81.9761 584.4747 81.0391C584.4747 81.0391 587.5234 79.7314 587.8854 79.6011 588.2477 79.4702 587.6022 79.5747 586.9231 79.5107 586.9231 79.5107 584.2209 79.9712 583.6477 80.7969 583.1217 81.5542 582.8306 82.0107 582.7866 82.0806L582.0295 82.1284C582.0295 82.1284 582.8354 79.6216 585.2279 78.9121 587.6201 78.2026 590.2103 79.3799 590.2103 79.3799 588.6897 80.0063 584.8077 81.9492 584.8077 81.9492Z" fill="#bd8f42"/>
  <path d="M582.2408 86.6528L581.8653 86.8213 581.6625 85.9438C581.6625 85.9438 584.0809 83.7021 584.3755 83.4585 584.67 83.2144 584.1066 83.5327 583.4617 83.7109 583.4617 83.7109 581.1103 85.0654 580.8287 86.0117 580.5702 86.8799 580.4382 87.394 580.4183 87.4727L579.7352 87.7788C579.7352 87.7788 579.7293 85.23 581.7214 83.7573 583.7136 82.2847 586.451 82.4512 586.451 82.4512 585.2371 83.5459 582.2408 86.6528 582.2408 86.6528Z" fill="#bd8f42"/>
  <path d="M589.1652 74.9194C589.0308 75.1899 588.7891 75.4326 588.4875 75.6489L588.1279 72.5161 586.6962 76.5112C585.8203 76.8125 585.0594 76.9609 585.0594 76.9609 585.0594 76.9609 587.1445 73.0693 587.4397 71.8276 587.7352 70.5859 587.9032 69.73 588.4646 70.8032 589.0255 71.8765 589.1652 74.9194 589.1652 74.9194Z" fill="#bd8f42"/>
  <path d="M584.0574 77.4482C584.0814 77.7407 583.999 78.0605 583.8506 78.3877L582.0184 75.9185 582.72 80.0088C582.0868 80.7158 581.4706 81.2305 581.4706 81.2305 581.4706 81.2305 581.4483 76.791 581.1356 75.6641 580.8359 74.583 580.608 73.877 581.5221 74.4497 582.463 75.0381 584.0574 77.4482 584.0574 77.4482Z" fill="#bd8f42"/>
  <path d="M580.5197 83.5244C580.6158 83.7808 580.6215 84.0981 580.5707 84.4419L578.1447 82.8984 579.9972 86.1982C579.646 86.9673 579.2711 87.5664 579.2711 87.5664 579.2711 87.5664 577.9043 83.9692 577.1924 83.0166 576.457 82.0322 575.9122 81.3628 577.1014 81.5898 578.2714 81.813 580.5197 83.5244 580.5197 83.5244Z" fill="#bd8f42"/>
  <path d="M580.114 88.9927C580.2655 89.2251 580.3477 89.5391 580.3833 89.8892L577.6646 89.02 580.2844 91.6768C580.1582 92.4443 579.9771 93.0537 579.9771 93.0537 579.9771 93.0537 577.775 90.1875 576.7605 89.4229 575.6395 88.5776 574.782 87.981 576.1385 87.8892 577.4269 87.8013 580.114 88.9927 580.114 88.9927Z" fill="#bd8f42"/>
  <path d="M580.3337 89.3848C580.2549 89.6504 580.2633 89.9712 580.3265 90.3149L582.5665 88.5894 580.9451 92.0562C581.311 92.8154 581.6925 93.4028 581.6925 93.4028 581.6925 93.4028 582.8447 89.6689 583.4919 88.6445 584.1672 87.5771 584.6735 86.8418 583.5195 87.1685 582.3973 87.4863 580.3337 89.3848 580.3337 89.3848Z" fill="#bd8f42"/>
  <path d="M582.0494 97.1753C582.0494 97.1753 579.4504 89.6235 580.9763 85.1729 582.5023 80.7222 586.089 77.3076 586.089 77.3076 586.089 77.3076 585.2322 77.3901 584.3787 78.3296 583.5251 79.2695 581.6947 82.4761 581.3126 83.4604 580.9306 84.4443 579.8445 86.1758 580.3111 90.6553 580.7776 95.1353 581.708 97.5166 581.708 97.5166L582.0494 97.1753Z" fill="#bd8f42"/>
</g>--><!-- Usable: --><!-- <g id="passport">
<path
   d="M659.3527 41.2817C662.3706 38.2637 667.282 38.2822 670.3226 41.3228L681.3334 52.3335C684.3739 55.374 684.3922 60.2852 681.3741 63.3032L567.3032 177.374C564.2853 180.3921 559.3739 180.374 556.3334 177.3335L545.3226 166.3228C542.282 163.2822 542.2638 158.3706 545.2817 155.3525L659.3527 41.2817Z"
   fill="#e2ded5"
   id="path4" />
<path
   d="M651.7828 33.7119C654.8007 30.6938 654.7825 25.7827 651.7419 22.7417L640.7312 11.731C637.6906 8.6904 632.7792 8.6724 629.7612 11.6904L515.6903 125.7612C512.6724 128.7793 512.6906 133.6904 515.7312 136.731L526.7419 147.7417C529.7825 150.7827 534.6938 150.8008 537.7119 147.7827L651.7828 33.7119Z"
   fill="#e2ded5"
   id="path6" />
<path
   d="M664.4734 35.4727L671.011 42.0103 546.011 167.0103 539.4734 160.4727 664.4734 35.4727Z"
   fill="#e2ded5"
   id="path8" />
<path
   d="M651.054 22.0537L657.5917 28.5913 532.5917 153.5913 526.0541 147.0532 651.054 22.0537Z"
   fill="#e2ded5"
   id="path10" />
<path
   d="M654.8517 29.2666L664.1421 38.5566 542.5574 160.1416 533.2671 150.8511 654.8517 29.2666Z"
   fill="#e2ded5"
   id="path12" />
<path
   d="M623.2853 21.6069L624.6616 22.9834 615.0988 32.5464 613.7224 31.1699 623.2853 21.6069Z"
   fill="#cfc3b3"
   id="path14" />
<path
   d="M536.5826 120.6968L537.959 122.0732 535.5684 124.4639 534.192 123.0874 536.5826 120.6968Z"
   fill="#cfc3b3"
   id="path16" />
<path
   d="M643.8615 23.7407L645.2378 25.1172 533.5575 136.7974 532.1812 135.4209 643.8615 23.7407Z"
   fill="#f0b374"
   id="path18" />
<path
   d="M531.1412 132.332L534.582 135.7729 533.5575 136.7974 530.1166 133.3564 531.1412 132.332Z"
   fill="#f0b374"
   id="path20" />
<path
   d="M662.098 41.9771L663.4744 43.3535 551.7941 155.0337 550.4177 153.6577 662.098 41.9771Z"
   fill="#f0b374"
   id="path22" />
<path
   d="M549.3778 150.5684L552.8186 154.0093 551.7941 155.0337 548.3531 151.5933 549.3778 150.5684Z"
   fill="#f0b374"
   id="path24" />
<path
   d="M677.5819 57.4609L678.9583 58.8374 627.7288 110.0669 626.3524 108.6904 677.5819 57.4609Z"
   fill="#f0b374"
   id="path26" />
<path
   d="M594.8932 129.8271L596.2696 131.2036 562.1166 165.3564 560.7402 163.98 594.8932 129.8271Z"
   fill="#f0b374"
   id="path28" />
<path
   d="M559.0122 160.2026L562.453 163.6436 561.4285 164.6685 557.9875 161.2275 559.0122 160.2026Z"
   fill="#f0b374"
   id="path30" />
<path
   d="M524.9247 119.9678L526.301 121.3442 522.2026 125.4424 520.8263 124.0664 524.9247 119.9678Z"
   fill="#cfc3b3"
   id="path32" />
<path
   d="M530.4351 126.8442L531.8115 128.2207 528.3962 131.6362 527.0198 130.2598 530.4351 126.8442Z"
   fill="#cfc3b3"
   id="path34" />
<path
   d="M533.1674 124.1123L534.5437 125.4883 533.1776 126.8545 531.8013 125.4785 533.1674 124.1123Z"
   fill="#cfc3b3"
   id="path36" />
<path
   d="M548.3276 144.7368L549.704 146.1133 546.2887 149.5283 544.9124 148.1523 548.3276 144.7368Z"
   fill="#cfc3b3"
   id="path38" />
<path
   d="M558.9943 155.4033L560.3706 156.7798 556.9553 160.1953 555.579 158.8188 558.9943 155.4033Z"
   fill="#cfc3b3"
   id="path40" />
<path
   d="M530.2246 116.3882L535.2139 121.3774 580.1171 166.2808C583.5721 169.7358 585.2578 169.7422 588.6871 166.313L669.9714 85.0283C673.4005 81.5996 673.3945 79.9136 669.9395 76.4585L625.0362 31.5552 620.0469 26.5659 610.2405 16.7593 520.4181 106.582 530.2246 116.3882Z"
   fill="#1b3b52"
   id="path42" />
<path
   d="M532.8313 114.897L537.5792 119.645 580.3096 162.3755C583.5975 165.6631 585.2043 165.6665 588.4771 162.394L666.0525 84.8184C669.3253 81.5459 669.3215 79.9395 666.0337 76.6514L623.3032 33.9209 618.5554 29.1729 609.2234 19.8413 523.4994 105.5649 532.8313 114.897Z"
   stroke="#16354a"
   stroke-width="1"
   fill="#1b3b52"
   id="path44" />
<path
   d="M605.221 49.9922L597.7071 57.5036 598.7394 58.5362 601.4717 55.8048 602.2137 56.547C602.7675 57.101 603.4167 57.3982 604.1721 57.4281 604.9221 57.4633 605.5533 57.2302 606.0603 56.7233L607.1756 55.6084C607.6986 55.0856 607.9696 54.4921 607.9885 53.828 607.9913 53.1263 607.705 52.477 607.1189 51.8908L605.221 49.9922 605.221 49.9922ZM604.9586 55.7601C604.7558 55.9628 604.4937 56.0528 604.1883 56.0355 603.8776 56.0235 603.6093 55.8939 603.3781 55.6626L602.4963 54.7806 605.2287 52.0491 606.1104 52.9312C606.3631 53.184 606.498 53.4577 606.5098 53.747 606.5216 54.0363 606.4261 54.293 606.2074 54.5117L604.9586 55.7601 604.9586 55.7601Z"
   fill="#bd9756"
   id="path46" />
<path
   d="M606.0279 62.4118L604.6105 64.4093 605.6643 65.4635 611.8932 56.6667 610.3072 55.0801 601.4922 61.2899 602.5406 62.3387 604.544 60.9274 606.0279 62.4118 606.0279 62.4118ZM606.7407 61.0756L605.8858 60.2204 609.4432 57.5245 606.7407 61.0756 606.7407 61.0756Z"
   fill="#bd9756"
   id="path48" />
<path
   d="M612.5106 67.1036C612.5583 66.9484 612.6058 66.7719 612.6586 66.5685 612.7534 66.1297 612.7783 65.6209 612.7386 65.0369 612.7272 64.8547 612.6831 64.5117 612.6009 64.0025 612.5243 63.5737 612.4908 63.2308 612.5006 62.9737 612.5088 62.2988 612.6891 61.796 613.0253 61.4599 613.2387 61.2466 613.4632 61.1189 613.7148 61.0717 614.0092 61.014 614.2827 61.1062 614.5193 61.3428 614.7397 61.5633 614.8584 61.7888 614.8753 62.0085 614.8978 62.3085 614.8026 62.6081 614.5894 62.8965L616.002 63.9467C616.2686 63.6157 616.4494 63.2629 616.5391 62.883 616.6234 62.5084 616.6166 62.1387 616.5081 61.774 616.3618 61.3074 616.0815 60.8564 615.6622 60.4369 615.2159 59.9905 614.7382 59.7261 614.2397 59.633 613.4089 59.4957 612.66 59.7605 611.9983 60.422 611.6248 60.7954 611.3746 61.2283 611.2479 61.7313 611.1371 62.1861 611.1073 62.7966 611.1744 63.5682 611.2528 64.4791 611.3196 65.165 611.3642 65.6152 611.3718 66.2312 611.2289 66.6966 610.9301 66.9954 610.7166 67.2088 610.5135 67.3258 610.3262 67.3625 609.9301 67.4359 609.603 67.3435 609.3396 67.0907 609.1407 66.9131 609.0434 66.677 609.0477 66.3932 609.041 66.0128 609.2215 65.585 609.5893 65.1098L608.3748 64.0443C608.0067 64.4553 607.7458 64.8881 607.5922 65.332 607.4331 65.7706 607.3865 66.2043 607.4631 66.6224 607.5453 67.1316 607.8096 67.6094 608.2612 68.0612 608.4977 68.2978 608.7395 68.4863 608.9756 68.6158 609.4158 68.8533 609.85 68.9461 610.2783 68.8836 610.9207 68.8005 611.4928 68.5082 611.9998 67.9907 612.1971 67.7826 612.3674 67.4833 612.5106 67.1036L612.5106 67.1036Z"
   fill="#bd9756"
   id="path50" />
<path
   d="M616.9839 71.5783C617.0316 71.4231 617.0791 71.2466 617.1319 71.0433 617.2267 70.6044 617.2516 70.0956 617.2119 69.5116 617.2005 69.3295 617.1564 68.9865 617.0741 68.4773 616.9976 68.0484 616.9641 67.7055 616.9739 67.4484 616.9821 66.7735 617.1623 66.2708 617.4985 65.9347 617.712 65.7213 617.9365 65.5936 618.188 65.5465 618.4824 65.4887 618.756 65.5809 618.9926 65.8175 619.213 66.0381 619.3317 66.2635 619.3485 66.4832 619.3711 66.7832 619.2758 67.0828 619.0626 67.3712L620.4753 68.4214C620.7419 68.0904 620.9227 67.7376 621.0123 67.3577 621.0966 66.9831 621.0899 66.6135 620.9814 66.2488 620.835 65.7822 620.5548 65.3311 620.1354 64.9116 619.6892 64.4652 619.2115 64.2008 618.713 64.1077 617.8822 63.9704 617.1333 64.2352 616.4716 64.8967 616.098 65.2701 615.8478 65.703 615.7212 66.206 615.6104 66.6609 615.5805 67.2714 615.6477 68.043 615.7261 68.9539 615.7929 69.6398 615.8374 70.0899 615.8451 70.7059 615.7022 71.1714 615.4033 71.4701 615.1899 71.6835 614.9868 71.8005 614.7994 71.8372 614.4033 71.9106 614.0762 71.8182 613.8128 71.5654 613.614 71.3879 613.5167 71.1518 613.521 70.8679 613.5142 70.4876 613.6947 70.0598 614.0626 69.5845L612.848 68.519C612.48 68.93 612.2191 69.3628 612.0654 69.8068 611.9064 70.2454 611.8597 70.679 611.9363 71.0972 612.0186 71.6063 612.2828 72.0841 612.7344 72.5359 612.971 72.7726 613.2128 72.961 613.4489 73.0905 613.889 73.328 614.3232 73.4208 614.7515 73.3583 615.394 73.2752 615.9661 72.9829 616.473 72.4654 616.6704 72.2573 616.8407 71.958 616.9839 71.5783L616.9839 71.5783Z"
   fill="#bd9756"
   id="path52" />
<path
   d="M623.114 67.8912L615.6001 75.4025 616.6324 76.4352 619.3647 73.7038 620.1067 74.446C620.6605 74.9999 621.3097 75.2972 622.0651 75.327 622.8151 75.3622 623.4463 75.1291 623.9533 74.6223L625.0687 73.5073C625.5916 72.9845 625.8626 72.391 625.8815 71.7269 625.8843 71.0252 625.598 70.3759 625.012 69.7897L623.114 67.8912 623.114 67.8912ZM622.8516 73.659C622.6489 73.8617 622.3867 73.9517 622.0813 73.9344 621.7706 73.9224 621.5023 73.7928 621.2711 73.5615L620.3893 72.6795 623.1217 69.9481 624.0034 70.8301C624.2562 71.0829 624.3911 71.3566 624.4028 71.6459 624.4147 71.9352 624.3192 72.1919 624.1004 72.4107L622.8516 73.659 622.8516 73.659Z"
   fill="#bd9756"
   id="path54" />
<path
   d="M627.6287 73.432C626.9162 73.4023 626.3172 73.6356 625.8315 74.121L621.8291 78.1221C621.3435 78.6076 621.11 79.2066 621.1341 79.9137 621.1581 80.6209 621.4337 81.238 621.9605 81.7651 622.4821 82.2868 623.0991 82.5624 623.8116 82.5921 624.5241 82.6218 625.1232 82.3992 625.6142 81.9084L629.6166 77.9073C630.0969 77.4272 630.325 76.8229 630.3009 76.1157 630.2715 75.4032 630.0013 74.7807 629.4744 74.2537 628.9583 73.7374 628.3412 73.4617 627.6287 73.432L627.6287 73.432ZM624.5071 80.9505C624.3257 81.1319 624.085 81.2005 623.7902 81.1618 623.4954 81.1232 623.2325 80.9882 622.9959 80.7515 622.754 80.5095 622.6137 80.2411 622.5751 79.9464 622.5311 79.6462 622.6052 79.4108 622.7867 79.2294L626.9385 75.079C627.12 74.8976 627.3554 74.8236 627.6555 74.8676 627.9503 74.9063 628.2186 75.0467 628.4606 75.2887 628.6971 75.5253 628.832 75.7884 628.8706 76.0831 628.9092 76.3779 628.8405 76.6186 628.6591 76.8L624.5071 80.9505 624.5071 80.9505Z"
   fill="#bd9756"
   id="path56" />
<path
   d="M632.4046 77.1848L624.8907 84.6962 625.923 85.7289 628.6553 82.9974 629.5693 83.9117C629.6177 83.9602 629.6768 83.9979 629.7572 84.0143L627.6973 87.5037 628.7618 88.5686 631.189 84.4325C632.0626 84.5807 632.7689 84.3907 633.3026 83.8573L634.3966 82.7636C634.9409 82.2195 635.2227 81.6582 635.2527 81.0798 635.2878 80.4211 634.9692 79.7503 634.3026 79.0834L632.4046 77.1848 632.4046 77.1848ZM632.1422 82.9527C631.9395 83.1554 631.6773 83.2454 631.3719 83.2281 631.0612 83.2161 630.7929 83.0865 630.5617 82.8552L629.68 81.9732 632.4123 79.2417 633.2941 80.1238C633.8532 80.6831 633.882 81.2135 633.391 81.7043L632.1422 82.9527 632.1422 82.9527Z"
   fill="#bd9756"
   id="path58" />
<path
   d="M630.7404 90.5478L631.7726 91.5804 638.262 85.0933 639.6383 86.4702 640.663 85.4459 636.8779 81.6596 635.8533 82.6838 637.2297 84.0607 630.7404 90.5478 630.7404 90.5478Z"
   fill="#bd9756"
   id="path60" />
<path
   filter="url(#filter1)"
   d="M562.2971 121.8213L569.5229 129.0469 565.083 133.4868 557.8572 126.2612 562.2971 121.8213Z"
   fill="#bd9756"
   id="path62" />
<path
   d="M612.6493 19.168L613.6816 20.2002 523.8592 110.0225 522.8269 108.9902 612.6493 19.168Z"
   fill="#16354a"
   id="path64" />
<path
   d="M590.4476 86.7891C594.5032 82.7334 601.1025 82.7583 605.1882 86.8438 609.274 90.9297 609.2988 97.5293 605.2433 101.5845 601.1874 105.6406 594.5884 105.6152 590.5026 101.5298 586.4169 97.4438 586.3917 90.8447 590.4476 86.7891ZM589.7594 86.1006C585.3266 90.5337 585.3536 97.7471 589.8195 102.2129 594.2853 106.6787 601.4987 106.7056 605.9315 102.2729 610.3643 97.8398 610.3373 90.627 605.8713 86.1606 601.4055 81.6948 594.1923 81.668 589.7594 86.1006Z"
   fill="#c19b5c"
   id="path66" />
<path
   d="M589.9304 85.9297L606.1024 102.1021 605.4193 102.7852 589.2473 86.6128 589.9304 85.9297Z"
   fill="#c19b5c"
   id="path68" />
<path
   d="M590.3329 102.0435L605.3604 87.0161C605.3604 87.0161 606.2088 94.6104 602.657 97.9741 599.1052 101.3384 597.3086 102.103 590.3329 102.0435Z"
   stroke="#c19b5c"
   stroke-width="1"
   fill="none"
   id="path70" />
<path
   d="M590.3329 102.0435L605.3604 87.0161C605.3604 87.0161 597.7662 86.1675 594.4021 89.7192 591.0379 93.271 590.2731 95.0679 590.3329 102.0435Z"
   stroke="#c19b5c"
   stroke-width="1"
   fill="none"
   id="path72" />
<path
   d="M586.8741 93.8032C586.8741 93.8032 592.4932 95.2378 594.7729 97.6035 597.0527 99.9688 598.229 105.1582 598.229 105.1582 598.229 105.1582 588.4611 105.6357 586.8741 93.8032Z"
   stroke="#c19b5c"
   stroke-width="1"
   fill="none"
   id="path74" />
<path
   d="M597.5764 83.1011C597.5764 83.1011 599.0115 88.7197 601.3768 90.9995 603.7418 93.2798 608.9312 94.4561 608.9312 94.4561 608.9312 94.4561 609.4092 84.6875 597.5764 83.1011Z"
   stroke="#c19b5c"
   stroke-width="1"
   fill="none"
   id="path76" />
<path
   d="M615.0049 99.3931L615.2635 99.7539 616.032 99.0542C616.032 99.0542 615.1194 95.6655 614.9897 95.2793 614.8595 94.8931 615.2047 95.4941 615.7208 96.0103 615.7208 96.0103 617.1442 98.5439 616.8055 99.5708 616.4941 100.5142 616.2892 101.0605 616.2574 101.144L616.728 101.7988C616.728 101.7988 618.3905 99.4482 617.3956 97.0024 616.401 94.5562 613.6106 93.2173 613.6106 93.2173 614.0883 94.8901 615.0049 99.3931 615.0049 99.3931Z"
   fill="#bd8f42"
   id="path78" />
<path
   d="M613.183 103.4331L613.3573 103.855 614.2882 103.3242C614.2882 103.3242 614.1646 99.7046 614.1243 99.2861 614.0844 98.8677 614.2893 99.5513 614.6848 100.188 614.6848 100.188 615.5176 103.0625 614.9401 104.02 614.4103 104.8994 614.0782 105.4038 614.0273 105.4805L614.345 106.2466C614.345 106.2466 616.5522 104.2549 616.1271 101.5664 615.7026 98.877 613.2263 96.897 613.2263 96.897 613.3145 98.6904 613.183 103.4331 613.183 103.4331Z"
   fill="#bd8f42"
   id="path80" />
<path
   d="M609.7009 106.8423L609.6737 107.2593 610.6111 107.1753C610.6111 107.1753 611.9182 104.1265 612.0487 103.7646 612.1796 103.4023 612.0753 104.0479 612.1393 104.7271 612.1393 104.7271 611.6786 107.4287 610.8532 108.002 610.0957 108.5283 609.6392 108.8193 609.5695 108.8633L609.5217 109.6206C609.5217 109.6206 612.0283 108.8145 612.7379 106.4219 613.4471 104.0298 612.27 101.4395 612.27 101.4395 611.6437 102.96 609.7009 106.8423 609.7009 106.8423Z"
   fill="#bd8f42"
   id="path82" />
<path
   d="M604.9973 109.4092L604.8287 109.7847 605.7059 109.9873C605.7059 109.9873 607.9476 107.5688 608.1917 107.2744 608.4357 106.98 608.1171 107.5435 607.9392 108.188 607.9392 108.188 606.5844 110.5396 605.6384 110.8213 604.77 111.0796 604.2557 111.2119 604.177 111.2314L603.8711 111.9146C603.8711 111.9146 606.4198 111.9204 607.8925 109.9282 609.3652 107.9365 609.1989 105.1987 609.1989 105.1987 608.1039 106.4126 604.9973 109.4092 604.9973 109.4092Z"
   fill="#bd8f42"
   id="path84" />
<path
   d="M616.7303 102.4849C616.4599 102.6191 616.2175 102.8608 616.0011 103.1621L619.1339 103.522 615.1387 104.9536C614.8372 105.8296 614.6891 106.5903 614.6891 106.5903 614.6891 106.5903 618.5807 104.5054 619.822 104.21 621.0638 103.9146 621.9199 103.7466 620.8469 103.1855 619.7734 102.6245 616.7303 102.4849 616.7303 102.4849Z"
   fill="#bd8f42"
   id="path86" />
<path
   d="M614.2015 107.5928C613.9092 107.5684 613.5895 107.6509 613.262 107.7993L615.7316 109.6313 611.6409 108.9297C610.9341 109.563 610.4193 110.1792 610.4193 110.1792 610.4193 110.1792 614.8589 110.2017 615.9861 110.5142 617.067 110.814 617.7729 111.042 617.2003 110.1279 616.6118 109.187 614.2015 107.5928 614.2015 107.5928Z"
   fill="#bd8f42"
   id="path88" />
<path
   d="M608.1253 111.1304C607.8693 111.0342 607.5518 111.0283 607.2081 111.0791L608.7513 113.5054 605.4519 111.6528C604.6824 112.0039 604.0835 112.3789 604.0835 112.3789 604.0835 112.3789 607.6807 113.7456 608.6333 114.4575 609.6176 115.1929 610.2872 115.7378 610.0602 114.5483 609.837 113.3784 608.1253 111.1304 608.1253 111.1304Z"
   fill="#bd8f42"
   id="path90" />
<path
   d="M602.6571 111.5361C602.4249 111.3843 602.1111 111.3022 601.761 111.2666L602.63 113.9854 599.973 111.3657C599.2053 111.4917 598.5961 111.6729 598.5961 111.6729 598.5961 111.6729 601.4623 113.875 602.2272 114.8892 603.0723 116.0103 603.6691 116.8677 603.7609 115.5112 603.8484 114.2231 602.6571 111.5361 602.6571 111.5361Z"
   fill="#bd8f42"
   id="path92" />
<path
   d="M602.265 111.3159C601.9998 111.395 601.6788 111.3867 601.335 111.3232L603.0605 109.0835 599.5936 110.7051C598.8346 110.3389 598.2469 109.9575 598.2469 109.9575 598.2469 109.9575 601.981 108.8052 603.0055 108.1582 604.073 107.4829 604.8081 106.9766 604.4813 108.1304 604.1635 109.2524 602.265 111.3159 602.265 111.3159Z"
   fill="#bd8f42"
   id="path94" />
<path
   d="M594.4747 109.6006C594.4747 109.6006 602.0262 112.1997 606.4769 110.6733 610.9276 109.1475 614.3423 105.561 614.3423 105.561 614.3423 105.561 614.2598 106.4175 613.3202 107.271 612.3806 108.125 609.1738 109.9551 608.1896 110.3374 607.2054 110.7192 605.4742 111.8052 600.9945 111.3389 596.5148 110.8721 594.1334 109.9419 594.1334 109.9419L594.4747 109.6006Z"
   fill="#bd8f42"
   id="path96" />
<path
   d="M592.2569 76.645L591.8962 76.3862 592.5959 75.6177C592.5959 75.6177 595.9844 76.5303 596.3707 76.6602 596.7567 76.7905 596.1557 76.4453 595.6395 75.9292 595.6395 75.9292 593.1059 74.5059 592.079 74.8442 591.1359 75.1558 590.5891 75.3608 590.5056 75.3926L589.851 74.9219C589.851 74.9219 592.2017 73.2593 594.6476 74.2544 597.0939 75.249 598.4326 78.0391 598.4326 78.0391 596.7597 77.5615 592.2569 76.645 592.2569 76.645Z"
   fill="#bd8f42"
   id="path98" />
<path
   d="M588.2167 78.4668L587.7947 78.2925 588.3259 77.3618C588.3259 77.3618 591.9455 77.4854 592.3636 77.5259 592.7822 77.5654 592.0986 77.3604 591.4618 76.9653 591.4618 76.9653 588.5876 76.1323 587.6299 76.71 586.7507 77.2397 586.2462 77.5718 586.1695 77.6226L585.4036 77.3047C585.4036 77.3047 587.395 75.0977 590.0836 75.5229 592.7729 75.9473 594.7527 78.4238 594.7527 78.4238 592.9597 78.3354 588.2167 78.4668 588.2167 78.4668Z"
   fill="#bd8f42"
   id="path100" />
<path
   d="M584.8077 81.9492L584.3907 81.9761 584.4747 81.0391C584.4747 81.0391 587.5234 79.7314 587.8854 79.6011 588.2477 79.4702 587.6022 79.5747 586.9231 79.5107 586.9231 79.5107 584.2209 79.9712 583.6477 80.7969 583.1217 81.5542 582.8306 82.0107 582.7866 82.0806L582.0295 82.1284C582.0295 82.1284 582.8354 79.6216 585.2279 78.9121 587.6201 78.2026 590.2103 79.3799 590.2103 79.3799 588.6897 80.0063 584.8077 81.9492 584.8077 81.9492Z"
   fill="#bd8f42"
   id="path102" />
<path
   d="M582.2408 86.6528L581.8653 86.8213 581.6625 85.9438C581.6625 85.9438 584.0809 83.7021 584.3755 83.4585 584.67 83.2144 584.1066 83.5327 583.4617 83.7109 583.4617 83.7109 581.1103 85.0654 580.8287 86.0117 580.5702 86.8799 580.4382 87.394 580.4183 87.4727L579.7352 87.7788C579.7352 87.7788 579.7293 85.23 581.7214 83.7573 583.7136 82.2847 586.451 82.4512 586.451 82.4512 585.2371 83.5459 582.2408 86.6528 582.2408 86.6528Z"
   fill="#bd8f42"
   id="path104" />
<path
   d="M589.1652 74.9194C589.0308 75.1899 588.7891 75.4326 588.4875 75.6489L588.1279 72.5161 586.6962 76.5112C585.8203 76.8125 585.0594 76.9609 585.0594 76.9609 585.0594 76.9609 587.1445 73.0693 587.4397 71.8276 587.7352 70.5859 587.9032 69.73 588.4646 70.8032 589.0255 71.8765 589.1652 74.9194 589.1652 74.9194Z"
   fill="#bd8f42"
   id="path106" />
<path
   d="M584.0574 77.4482C584.0814 77.7407 583.999 78.0605 583.8506 78.3877L582.0184 75.9185 582.72 80.0088C582.0868 80.7158 581.4706 81.2305 581.4706 81.2305 581.4706 81.2305 581.4483 76.791 581.1356 75.6641 580.8359 74.583 580.608 73.877 581.5221 74.4497 582.463 75.0381 584.0574 77.4482 584.0574 77.4482Z"
   fill="#bd8f42"
   id="path108" />
<path
   d="M580.5197 83.5244C580.6158 83.7808 580.6215 84.0981 580.5707 84.4419L578.1447 82.8984 579.9972 86.1982C579.646 86.9673 579.2711 87.5664 579.2711 87.5664 579.2711 87.5664 577.9043 83.9692 577.1924 83.0166 576.457 82.0322 575.9122 81.3628 577.1014 81.5898 578.2714 81.813 580.5197 83.5244 580.5197 83.5244Z"
   fill="#bd8f42"
   id="path110" />
<path
   d="M580.114 88.9927C580.2655 89.2251 580.3477 89.5391 580.3833 89.8892L577.6646 89.02 580.2844 91.6768C580.1582 92.4443 579.9771 93.0537 579.9771 93.0537 579.9771 93.0537 577.775 90.1875 576.7605 89.4229 575.6395 88.5776 574.782 87.981 576.1385 87.8892 577.4269 87.8013 580.114 88.9927 580.114 88.9927Z"
   fill="#bd8f42"
   id="path112" />
<path
   d="M580.3337 89.3848C580.2549 89.6504 580.2633 89.9712 580.3265 90.3149L582.5665 88.5894 580.9451 92.0562C581.311 92.8154 581.6925 93.4028 581.6925 93.4028 581.6925 93.4028 582.8447 89.6689 583.4919 88.6445 584.1672 87.5771 584.6735 86.8418 583.5195 87.1685 582.3973 87.4863 580.3337 89.3848 580.3337 89.3848Z"
   fill="#bd8f42"
   id="path114" />
<path
   d="M582.0494 97.1753C582.0494 97.1753 579.4504 89.6235 580.9763 85.1729 582.5023 80.7222 586.089 77.3076 586.089 77.3076 586.089 77.3076 585.2322 77.3901 584.3787 78.3296 583.5251 79.2695 581.6947 82.4761 581.3126 83.4604 580.9306 84.4443 579.8445 86.1758 580.3111 90.6553 580.7776 95.1353 581.708 97.5166 581.708 97.5166L582.0494 97.1753Z"
   fill="#bd8f42"
   id="path116" />
</g> --><!-- <g inkscape:label="Layer 1" inkscape:groupmode="layer" id="layer1"/>

<g id="passport" transform="matrix(3.3671438,0,0,3.6357545,-1648.2013,115.8091)">
  <path id="path3544" d="m659.35 41.28c3.02-3.02 7.93-3 10.97 0.04l11.01 11.01c3.04 3.04 3.06 7.95 0.04 10.97L567.3 177.37c-3.02 3.02-7.93 3-10.97-0.04l-11.01-11.01c-3.04-3.04-3.06-7.95-0.04-10.97L659.35 41.28Z" inkscape:connector-curvature="0" fill="#e2ded5"/>
  <path id="path3546" d="m651.78 33.71c3.02-3.02 3-7.93-0.04-10.97L640.73 11.73c-3.04-3.04-7.95-3.06-10.97-0.04L515.69 125.76c-3.02 3.02-3 7.93 0.04 10.97l11.01 11.01c3.04 3.04 7.95 3.06 10.97 0.04L651.78 33.71Z" inkscape:connector-curvature="0" fill="#e2ded5"/>
  <path id="path3548" d="m664.47 35.47 6.54 6.54-125 125-6.54-6.54 125-125z" inkscape:connector-curvature="0" fill="#e2ded5"/>
  <path id="path3550" d="m651.05 22.05 6.54 6.54-125 125-6.54-6.54L651.05 22.05Z" inkscape:connector-curvature="0" fill="#e2ded5"/>
  <path id="path3552" d="m654.85 29.27 9.29 9.29-121.58 121.59-9.29-9.29 121.58-121.58z" inkscape:connector-curvature="0" fill="#e2ded5"/>
  <path id="path3554" d="m623.29 21.61 1.38 1.38-9.56 9.56-1.38-1.38 9.56-9.56z" inkscape:connector-curvature="0" fill="#cfc3b3"/>
  <path id="path3556" d="m536.58 120.7 1.38 1.38-2.39 2.39-1.38-1.38 2.39-2.39z" inkscape:connector-curvature="0" fill="#cfc3b3"/>
  <path id="path3558" d="m643.86 23.74 1.38 1.38-111.68 111.68-1.38-1.38 111.68-111.68z" inkscape:connector-curvature="0" fill="#f0b374"/>
  <path id="path3560" d="m531.14 132.33 3.44 3.44-1.02 1.02-3.44-3.44 1.02-1.02z" inkscape:connector-curvature="0" fill="#f0b374"/>
  <path id="path3562" d="m662.1 41.98 1.38 1.38-111.68 111.68-1.38-1.38L662.1 41.98Z" inkscape:connector-curvature="0" fill="#f0b374"/>
  <path id="path3564" d="m549.38 150.57 3.44 3.44-1.02 1.02-3.44-3.44 1.02-1.02z" inkscape:connector-curvature="0" fill="#f0b374"/>
  <path id="path3566" d="m677.58 57.46 1.38 1.38-51.23 51.23-1.38-1.38 51.23-51.23z" inkscape:connector-curvature="0" fill="#f0b374"/>
  <path id="path3568" d="m594.89 129.83 1.38 1.38-34.15 34.15-1.38-1.38 34.15-34.15z" inkscape:connector-curvature="0" fill="#f0b374"/>
  <path id="path3570" d="m559.01 160.2 3.44 3.44-1.02 1.02-3.44-3.44 1.02-1.02z" inkscape:connector-curvature="0" fill="#f0b374"/>
  <path id="path3572" d="m524.92 119.97 1.38 1.38-4.1 4.1-1.38-1.38 4.1-4.1z" inkscape:connector-curvature="0" fill="#cfc3b3"/>
  <path id="path3574" d="m530.44 126.84 1.38 1.38-3.42 3.42-1.38-1.38 3.42-3.42z" inkscape:connector-curvature="0" fill="#cfc3b3"/>
  <path id="path3576" d="m533.17 124.11 1.38 1.38-1.37 1.37-1.38-1.38 1.37-1.37z" inkscape:connector-curvature="0" fill="#cfc3b3"/>
  <path id="path3578" d="m548.33 144.74 1.38 1.38-3.42 3.42-1.38-1.38 3.42-3.42z" inkscape:connector-curvature="0" fill="#cfc3b3"/>
  <path id="path3580" d="m558.99 155.4 1.38 1.38-3.42 3.42-1.38-1.38 3.42-3.42z" inkscape:connector-curvature="0" fill="#cfc3b3"/>
  <path id="path3582" d="m530.22 116.39 4.99 4.99 44.9 44.9c3.46 3.46 5.14 3.46 8.57 0.03l81.28-81.28c3.43-3.43 3.42-5.11-0.03-8.57l-44.9-44.9-4.99-4.99-9.81-9.81-89.82 89.82 9.81 9.81z" inkscape:connector-curvature="0" fill="#1b3b52"/>
  <path id="path3584" d="m532.83 114.9 4.75 4.75 42.73 42.73c3.29 3.29 4.89 3.29 8.17 0.02l77.58-77.58c3.27-3.27 3.27-4.88-0.02-8.17l-42.73-42.73-4.75-4.75-9.33-9.33-85.72 85.72 9.33 9.33z" inkscape:connector-curvature="0" style="fill:#1b3b52;stroke:#16354a"/>
  <path id="path3586" d="m605.22 49.99-7.51 7.51 1.03 1.03 2.73-2.73 0.74 0.74c0.55 0.55 1.2 0.85 1.96 0.88 0.75 0.04 1.38-0.2 1.89-0.7l1.12-1.11c0.52-0.52 0.79-1.12 0.81-1.78 0-0.7-0.28-1.35-0.87-1.94l-1.9-1.9 0 0zm-0.26 5.77c-0.2 0.2-0.46 0.29-0.77 0.28-0.31-0.01-0.58-0.14-0.81-0.37l-0.88-0.88 2.73-2.73 0.88 0.88c0.25 0.25 0.39 0.53 0.4 0.82 0.01 0.29-0.08 0.55-0.3 0.76l-1.25 1.25 0 0z" inkscape:connector-curvature="0" fill="#bd9756"/>
  <path id="path3588" d="m606.03 62.41-1.42 2 1.05 1.05 6.23-8.8-1.59-1.59-8.81 6.21 1.05 1.05-19.21 30.02 22.7-29.95zm0.71-1.34-0.85-0.86 29.01-7.41-28.16 8.27z" inkscape:connector-curvature="0" sodipodi:nodetypes="ccccccccccccccc" fill="#bd9756"/>
  <path id="path3590" d="m612.51 67.1c0.05-0.16 0.1-0.33 0.15-0.54 0.09-0.44 0.12-0.95 0.08-1.53-0.01-0.18-0.06-0.53-0.14-1.03-0.08-0.43-0.11-0.77-0.1-1.03 0.01-0.67 0.19-1.18 0.52-1.51 0.21-0.21 0.44-0.34 0.69-0.39 0.29-0.06 0.57 0.03 0.8 0.27 0.22 0.22 0.34 0.45 0.36 0.67 0.02 0.3-0.07 0.6-0.29 0.89l1.41 1.05c0.27-0.33 0.45-0.68 0.54-1.06 0.08-0.37 0.08-0.74-0.03-1.11-0.15-0.47-0.43-0.92-0.85-1.34-0.45-0.45-0.92-0.71-1.42-0.8-0.83-0.14-1.58 0.13-2.24 0.79-0.37 0.37-0.62 0.81-0.75 1.31-0.11 0.45-0.14 1.07-0.07 1.84 0.08 0.91 0.15 1.6 0.19 2.05 0.01 0.62-0.14 1.08-0.43 1.38-0.21 0.21-0.42 0.33-0.6 0.37-0.4 0.07-0.72-0.02-0.99-0.27-0.2-0.18-0.3-0.41-0.29-0.7-0.01-0.38 0.17-0.81 0.54-1.28l-1.21-1.07c-0.37 0.41-0.63 0.84-0.78 1.29-0.16 0.44-0.21 0.87-0.13 1.29 0.08 0.51 0.35 0.99 0.8 1.44 0.24 0.24 0.48 0.43 0.71 0.55 0.44 0.24 0.87 0.33 1.3 0.27 0.64-0.08 1.21-0.38 1.72-0.89 0.2-0.21 0.37-0.51 0.51-0.89l0 0z" inkscape:connector-curvature="0" fill="#bd9756"/>
  <path id="path3592" d="m616.98 71.58c0.05-0.16 0.1-0.33 0.15-0.53 0.09-0.44 0.12-0.95 0.08-1.53-0.01-0.18-0.06-0.53-0.14-1.03-0.08-0.43-0.11-0.77-0.1-1.03 0.01-0.67 0.19-1.18 0.52-1.51 0.21-0.21 0.44-0.34 0.69-0.39 0.29-0.06 0.57 0.03 0.8 0.27 0.22 0.22 0.34 0.45 0.36 0.67 0.02 0.3-0.07 0.6-0.29 0.89l1.41 1.05c0.27-0.33 0.45-0.68 0.54-1.06 0.08-0.37 0.08-0.74-0.03-1.11-0.15-0.47-0.43-0.92-0.85-1.34-0.45-0.45-0.92-0.71-1.42-0.8-0.83-0.14-1.58 0.13-2.24 0.79-0.37 0.37-0.62 0.81-0.75 1.31-0.11 0.45-0.14 1.07-0.07 1.84 0.08 0.91 0.15 1.6 0.19 2.05 0.01 0.62-0.14 1.08-0.43 1.38-0.21 0.21-0.42 0.33-0.6 0.37-0.4 0.07-0.72-0.02-0.99-0.27-0.2-0.18-0.3-0.41-0.29-0.7-0.01-0.38 0.17-0.81 0.54-1.28L612.85 68.52c-0.37 0.41-0.63 0.84-0.78 1.29-0.16 0.44-0.21 0.87-0.13 1.29 0.08 0.51 0.35 0.99 0.8 1.44 0.24 0.24 0.48 0.43 0.71 0.55 0.44 0.24 0.87 0.33 1.3 0.27 0.64-0.08 1.21-0.38 1.72-0.89 0.2-0.21 0.37-0.51 0.51-0.89l0 0z" inkscape:connector-curvature="0" fill="#bd9756"/>
  <path id="path3594" d="m623.11 67.89-7.51 7.51 1.03 1.03 2.73-2.73 0.74 0.74c0.55 0.55 1.2 0.85 1.96 0.88 0.75 0.04 1.38-0.2 1.89-0.7l1.12-1.11c0.52-0.52 0.79-1.12 0.81-1.78 0-0.7-0.28-1.35-0.87-1.94l-1.9-1.9 0 0zm-0.26 5.77c-0.2 0.2-0.46 0.29-0.77 0.28-0.31-0.01-0.58-0.14-0.81-0.37l-0.88-0.88 2.73-2.73 0.88 0.88c0.25 0.25 0.39 0.53 0.4 0.82 0.01 0.29-0.08 0.55-0.3 0.76l-1.25 1.25 0 0z" inkscape:connector-curvature="0" fill="#bd9756"/>
  <path id="path3596" d="m627.63 73.43c-0.71-0.03-1.31 0.2-1.8 0.69l-4 4c-0.49 0.49-0.72 1.08-0.69 1.79 0.02 0.71 0.3 1.32 0.83 1.85 0.52 0.52 1.14 0.8 1.85 0.83 0.71 0.03 1.31-0.19 1.8-0.68l4-4c0.48-0.48 0.71-1.08 0.68-1.79-0.03-0.71-0.3-1.33-0.83-1.86-0.52-0.52-1.13-0.79-1.85-0.82l0 0zm-3.12 7.52c-0.18 0.18-0.42 0.25-0.72 0.21-0.29-0.04-0.56-0.17-0.79-0.41-0.24-0.24-0.38-0.51-0.42-0.81-0.04-0.3 0.03-0.54 0.21-0.72l4.15-4.15c0.18-0.18 0.42-0.26 0.72-0.21 0.29 0.04 0.56 0.18 0.81 0.42 0.24 0.24 0.37 0.5 0.41 0.79 0.04 0.29-0.03 0.54-0.21 0.72l-4.15 4.15 0 0z" inkscape:connector-curvature="0" fill="#bd9756"/>
  <path id="path3598" d="m632.4 77.18-7.51 7.51 1.03 1.03 2.73-2.73 0.91 0.91c0.05 0.05 0.11 0.09 0.19 0.1l-2.06 3.49 1.06 1.06 2.43-4.14c0.87 0.15 1.58-0.04 2.11-0.58l1.09-1.09c0.54-0.54 0.83-1.11 0.86-1.68 0.04-0.66-0.28-1.33-0.95-2l-1.9-1.9 0 0zm-0.26 5.77c-0.2 0.2-0.46 0.29-0.77 0.28-0.31-0.01-0.58-0.14-0.81-0.37l-0.88-0.88 2.73-2.73 0.88 0.88c0.56 0.56 0.59 1.09 0.1 1.58l-1.25 1.25 0 0z" inkscape:connector-curvature="0" fill="#bd9756"/>
  <path id="path3600" d="m630.74 90.55 1.03 1.03 6.49-6.49 1.38 1.38 19.32-3.8-22.09-1.01-1.02 1.02 1.38 1.38-6.49 6.49z" inkscape:connector-curvature="0" sodipodi:nodetypes="cccccccccc" fill="#bd9756"/>
  <path id="path3602" d="m562.3 121.82 7.23 7.23-4.44 4.44-7.23-7.23 4.44-4.44z" inkscape:connector-curvature="0" style="fill:#bd9756;filter:url(#filter1)"/>
  <path id="path3604" d="m612.65 19.17 1.03 1.03-89.82 89.82-1.03-1.03 89.82-89.82z" inkscape:connector-curvature="0" fill="#16354a"/>
  <path id="path3606" d="m590.45 86.79c4.06-4.06 10.65-4.03 14.74 0.05 4.09 4.09 4.11 10.69 0.06 14.74-4.06 4.06-10.65 4.03-14.74-0.05-4.09-4.09-4.11-10.69-0.05-14.74zm-0.69-0.69c-4.43 4.43-4.41 11.65 0.06 16.11 4.47 4.47 11.68 4.49 16.11 0.06 4.43-4.43 4.41-11.65-0.06-16.11-4.47-4.47-11.68-4.49-16.11-0.06z" inkscape:connector-curvature="0" fill="#c19b5c"/>
  <path id="path3608" d="m589.93 85.93 16.17 16.17-0.68 0.68-16.17-16.17 0.68-0.68z" inkscape:connector-curvature="0" fill="#c19b5c"/>
  <path id="path3610" d="m590.33 102.04 15.03-15.03c0 0 0.85 7.59-2.7 10.96-3.55 3.36-5.35 4.13-12.32 4.07z" inkscape:connector-curvature="0" style="fill:none;stroke:#c19b5c"/>
  <path id="path3612" d="m590.33 102.04 15.03-15.03c0 0-7.59-0.85-10.96 2.7-3.36 3.55-4.13 5.35-4.07 12.32z" inkscape:connector-curvature="0" style="fill:none;stroke:#c19b5c"/>
  <path id="path3614" d="m586.87 93.8c0 0 5.62 1.43 7.9 3.8 2.28 2.37 3.46 7.55 3.46 7.55 0 0-9.77 0.48-11.35-11.35z" inkscape:connector-curvature="0" style="fill:none;stroke:#c19b5c"/>
  <path id="path3616" d="m597.58 83.1c0 0 1.44 5.62 3.8 7.9 2.37 2.28 7.55 3.46 7.55 3.46 0 0 0.48-9.77-11.35-11.35z" inkscape:connector-curvature="0" style="fill:none;stroke:#c19b5c"/>
  <path id="path3618" d="m615 99.39 0.26 0.36 0.77-0.7c0 0-0.91-3.39-1.04-3.77-0.13-0.39 0.22 0.21 0.73 0.73 0 0 1.42 2.53 1.08 3.56-0.31 0.94-0.52 1.49-0.55 1.57l0.47 0.65c0 0 1.66-2.35 0.67-4.8-0.99-2.45-3.78-3.79-3.78-3.79 0.48 1.67 1.39 6.18 1.39 6.18z" inkscape:connector-curvature="0" fill="#bd8f42"/>
  <path id="path3620" d="m613.18 103.43 0.17 0.42 0.93-0.53c0 0-0.12-3.62-0.16-4.04-0.04-0.42 0.17 0.27 0.56 0.9 0 0 0.83 2.87 0.26 3.83-0.53 0.88-0.86 1.38-0.91 1.46l0.32 0.77c0 0 2.21-1.99 1.78-4.68-0.42-2.69-2.9-4.67-2.9-4.67 0.09 1.79-0.04 6.54-0.04 6.54z" inkscape:connector-curvature="0" fill="#bd8f42"/>
  <path id="path3622" d="m609.7 106.84-0.03 0.42 0.94-0.08c0 0 1.31-3.05 1.44-3.41 0.13-0.36 0.03 0.28 0.09 0.96 0 0-0.46 2.7-1.29 3.27-0.76 0.53-1.21 0.82-1.28 0.86l-0.05 0.76c0 0 2.51-0.81 3.22-3.2 0.71-2.39-0.47-4.98-0.47-4.98-0.63 1.52-2.57 5.4-2.57 5.4z" inkscape:connector-curvature="0" fill="#bd8f42"/>
  <path id="path3624" d="m605 109.41-0.17 0.38 0.88 0.2c0 0 2.24-2.42 2.49-2.71 0.24-0.29-0.07 0.27-0.25 0.91 0 0-1.35 2.35-2.3 2.63-0.87 0.26-1.38 0.39-1.46 0.41l-0.31 0.68c0 0 2.55 0.01 4.02-1.99 1.47-1.99 1.31-4.73 1.31-4.73-1.09 1.21-4.2 4.21-4.2 4.21z" inkscape:connector-curvature="0" fill="#bd8f42"/>
  <path id="path3626" d="m616.73 102.48c-0.27 0.13-0.51 0.38-0.73 0.68l3.13 0.36-4 1.43c-0.3 0.88-0.45 1.64-0.45 1.64 0 0 3.89-2.08 5.13-2.38 1.24-0.3 2.1-0.46 1.02-1.02-1.07-0.56-4.12-0.7-4.12-0.7z" inkscape:connector-curvature="0" fill="#bd8f42"/>
  <path id="path3628" d="m614.2 107.59c-0.29-0.02-0.61 0.06-0.94 0.21l2.47 1.83-4.09-0.7c-0.71 0.63-1.22 1.25-1.22 1.25 0 0 4.44 0.02 5.57 0.34 1.08 0.3 1.79 0.53 1.21-0.39-0.59-0.94-3-2.54-3-2.54z" inkscape:connector-curvature="0" fill="#bd8f42"/>
  <path id="path3630" d="m608.13 111.13c-0.26-0.1-0.57-0.1-0.92-0.05l1.54 2.43-3.3-1.85c-0.77 0.35-1.37 0.73-1.37 0.73 0 0 3.6 1.37 4.55 2.08 0.98 0.74 1.65 1.28 1.43 0.09-0.22-1.17-1.93-3.42-1.93-3.42z" inkscape:connector-curvature="0" fill="#bd8f42"/>
  <path id="path3632" d="m602.66 111.54c-0.23-0.15-0.55-0.23-0.9-0.27l0.87 2.72-2.66-2.62c-0.77 0.13-1.38 0.31-1.38 0.31 0 0 2.87 2.2 3.63 3.22 0.85 1.12 1.44 1.98 1.53 0.62 0.09-1.29-1.1-3.98-1.1-3.98z" inkscape:connector-curvature="0" fill="#bd8f42"/>
  <path id="path3634" d="m602.27 111.32c-0.27 0.08-0.59 0.07-0.93 0.01l1.73-2.24-3.47 1.62c-0.76-0.37-1.35-0.75-1.35-0.75 0 0 3.73-1.15 4.76-1.8 1.07-0.68 1.8-1.18 1.48-0.03-0.32 1.12-2.22 3.19-2.22 3.19z" inkscape:connector-curvature="0" fill="#bd8f42"/>
  <path id="path3636" d="m594.47 109.6c0 0 7.55 2.6 12 1.07 4.45-1.53 7.87-5.11 7.87-5.11 0 0-0.08 0.86-1.02 1.71-0.94 0.85-4.15 2.68-5.13 3.07-0.98 0.38-2.72 1.47-7.2 1-4.48-0.47-6.86-1.4-6.86-1.4l0.34-0.34z" inkscape:connector-curvature="0" fill="#bd8f42"/>
  <path id="path3638" d="m592.26 76.65-0.36-0.26 0.7-0.77c0 0 3.39 0.91 3.77 1.04 0.39 0.13-0.21-0.21-0.73-0.73 0 0-2.53-1.42-3.56-1.08-0.94 0.31-1.49 0.52-1.57 0.55l-0.65-0.47c0 0 2.35-1.66 4.8-0.67 2.45 0.99 3.79 3.78 3.79 3.78-1.67-0.48-6.18-1.39-6.18-1.39z" inkscape:connector-curvature="0" fill="#bd8f42"/>
  <path id="path3640" d="m588.22 78.47-0.42-0.17 0.53-0.93c0 0 3.62 0.12 4.04 0.16 0.42 0.04-0.26-0.17-0.9-0.56 0 0-2.87-0.83-3.83-0.26-0.88 0.53-1.38 0.86-1.46 0.91l-0.77-0.32c0 0 1.99-2.21 4.68-1.78 2.69 0.42 4.67 2.9 4.67 2.9-1.79-0.09-6.54 0.04-6.54 0.04z" inkscape:connector-curvature="0" fill="#bd8f42"/>
  <path id="path3642" d="m584.81 81.95-0.42 0.03 0.08-0.94c0 0 3.05-1.31 3.41-1.44 0.36-0.13-0.28-0.03-0.96-0.09 0 0-2.7 0.46-3.28 1.29-0.53 0.76-0.82 1.21-0.86 1.28l-0.76 0.05c0 0 0.81-2.51 3.2-3.22 2.39-0.71 4.98 0.47 4.98 0.47-1.52 0.63-5.4 2.57-5.4 2.57z" inkscape:connector-curvature="0" fill="#bd8f42"/>
  <path id="path3644" d="m582.24 86.65-0.38 0.17-0.2-0.88c0 0 2.42-2.24 2.71-2.49 0.29-0.24-0.27 0.07-0.91 0.25 0 0-2.35 1.35-2.63 2.3-0.26 0.87-0.39 1.38-0.41 1.46l-0.68 0.31c0 0-0.01-2.55 1.99-4.02 1.99-1.47 4.73-1.31 4.73-1.31-1.21 1.09-4.21 4.2-4.21 4.2z" inkscape:connector-curvature="0" fill="#bd8f42"/>
  <path id="path3646" d="m589.17 74.92c-0.13 0.27-0.38 0.51-0.68 0.73l-0.36-3.13-1.43 4c-0.88 0.3-1.64 0.45-1.64 0.45 0 0 2.09-3.89 2.38-5.13 0.3-1.24 0.46-2.1 1.02-1.02 0.56 1.07 0.7 4.12 0.7 4.12z" inkscape:connector-curvature="0" fill="#bd8f42"/>
  <path id="path3648" d="m584.06 77.45c0.02 0.29-0.06 0.61-0.21 0.94l-1.83-2.47 0.7 4.09c-0.63 0.71-1.25 1.22-1.25 1.22 0 0-0.02-4.44-0.33-5.57-0.3-1.08-0.53-1.79 0.39-1.21 0.94 0.59 2.54 3 2.54 3z" inkscape:connector-curvature="0" fill="#bd8f42"/>
  <path id="path3650" d="m580.52 83.52c0.1 0.26 0.1 0.57 0.05 0.92l-2.43-1.54 1.85 3.3c-0.35 0.77-0.73 1.37-0.73 1.37 0 0-1.37-3.6-2.08-4.55-0.74-0.98-1.28-1.65-0.09-1.43 1.17 0.22 3.42 1.93 3.42 1.93z" inkscape:connector-curvature="0" fill="#bd8f42"/>
  <path id="path3652" d="m580.11 88.99c0.15 0.23 0.23 0.55 0.27 0.9l-2.72-0.87 2.62 2.66c-0.13 0.77-0.31 1.38-0.31 1.38 0 0-2.2-2.87-3.22-3.63-1.12-0.85-1.98-1.44-0.62-1.53 1.29-0.09 3.98 1.1 3.98 1.1z" inkscape:connector-curvature="0" fill="#bd8f42"/>
  <path id="path3654" d="m580.33 89.38c-0.08 0.27-0.07 0.59-0.01 0.93l2.24-1.73-1.62 3.47c0.37 0.76 0.75 1.35 0.75 1.35 0 0 1.15-3.73 1.8-4.76 0.68-1.07 1.18-1.8 0.03-1.48-1.12 0.32-3.19 2.22-3.19 2.22z" inkscape:connector-curvature="0" fill="#bd8f42"/>
  <path id="path3656" d="m582.05 97.18c0 0-2.6-7.55-1.07-12 1.53-4.45 5.11-7.87 5.11-7.87 0 0-0.86 0.08-1.71 1.02-0.85 0.94-2.68 4.15-3.07 5.13-0.38 0.98-1.47 2.72-1 7.19 0.47 4.48 1.4 6.86 1.4 6.86l0.34-0.34z" inkscape:connector-curvature="0" fill="#bd8f42"/>
</g> --><g
   id="php"><path
     d="M 189.3958 9.7268 C 191.2942 9.7268 192.5598 10.0771 193.1923 10.7786 C 193.8246 11.4792 193.9746 12.6831 193.6443 14.3884 C 193.2986 16.1643 192.6333 17.4316 191.647 18.1914 C 190.6609 18.9512 189.1602 19.3306 187.1453 19.3306 L 184.1052 19.3306 L 185.9714 9.7268 L 189.3958 9.7268 L 189.3958 9.7268 ZM 177.2191 29.0522 L 182.2163 29.0522 L 183.4021 22.9512 L 187.6826 22.9512 C 189.5714 22.9512 191.1251 22.7534 192.3447 22.3555 C 193.5647 21.9592 194.6735 21.2944 195.6713 20.3599 C 196.5088 19.5903 197.1863 18.7407 197.7051 17.8123 C 198.2236 16.8835 198.5919 15.8594 198.8096 14.7393 C 199.3381 12.0188 198.9395 9.9004 197.6135 8.3823 C 196.2881 6.8645 194.179 6.1057 191.2881 6.1057 L 181.6781 6.1057 L 177.2191 29.0522 L 177.2191 29.0522 Z"
     fill="#ffffff"
     id="path609" /><path
     d="M 202.4799 0.0049 L 207.438 0.0049 L 206.2524 6.1057 L 210.6696 6.1057 C 213.4487 6.1057 215.3657 6.5908 216.4211 7.5601 C 217.4758 8.53 217.792 10.1011 217.3702 12.2737 L 215.2957 22.9512 L 210.259 22.9512 L 212.2314 12.7988 C 212.4557 11.6438 212.3733 10.856 211.9836 10.4355 C 211.5935 10.0159 210.7644 9.8057 209.4956 9.8057 L 205.5332 9.8057 L 202.9791 22.9512 L 198.0208 22.9512 L 202.4799 0.0049 L 202.4799 0.0049 Z"
     fill="#ffffff"
     id="path611" /><path
     d="M 228.4023 9.7268 C 230.3007 9.7268 231.5663 10.0771 232.199 10.7786 C 232.8311 11.4792 232.9816 12.6831 232.6506 14.3884 C 232.3051 16.1643 231.6399 17.4316 230.6536 18.1914 C 229.6675 18.9512 228.1667 19.3306 226.1519 19.3306 L 223.1119 19.3306 L 224.978 9.7268 L 228.4023 9.7268 L 228.4023 9.7268 ZM 216.2261 29.0522 L 221.223 29.0522 L 222.4082 22.9512 L 226.6892 22.9512 C 228.5776 22.9512 230.1317 22.7534 231.3513 22.3555 C 232.5713 21.9592 233.6803 21.2944 234.678 20.3599 C 235.5154 19.5903 236.1929 18.7407 236.7119 17.8123 C 237.23 16.8835 237.5984 15.8594 237.8162 14.7393 C 238.3445 12.0188 237.946 9.9004 236.6206 8.3823 C 235.2947 6.8645 233.186 6.1057 230.2947 6.1057 L 220.6843 6.1057 L 216.2261 29.0522 L 216.2261 29.0522 Z"
     fill="#ffffff"
     id="path613" /></g><g
   id="wordpress"><path
     d="M 244.1062 23 C 244.1062 10.9082 253.9083 1.1062 266 1.1062 C 278.0917 1.1062 287.8938 10.9082 287.8938 23 C 287.8938 35.0918 278.0917 44.8938 266 44.8938 C 253.9083 44.8938 244.1062 35.0918 244.1062 23 ZM 243 23 C 243 35.7026 253.2973 46 266 46 C 278.7027 46 289 35.7026 289 23 C 289 10.2974 278.7027 0 266 0 C 253.2973 0 243 10.2974 243 23 Z"
     fill="#ffffff"
     id="path760" /><path
     d="M 279.3898 8.575 C 275.8773 5.3132 271.1716 3.3186 266 3.3186 C 259.1407 3.3186 253.1009 6.8274 249.5778 12.1479 C 249.813 12.1489 250.036 12.1543 250.1904 12.1685 C 250.6974 12.2144 253.002 12.0762 254.8918 11.9839 C 256.7816 11.8918 256.9429 12.2144 256.9199 12.8137 C 256.8968 13.4128 256.3898 13.4819 255.998 13.551 C 255.6062 13.6204 253.8777 13.7354 253.8777 13.7354 L 261.0681 35.03 L 265.4008 22.032 L 262.3587 13.7354 C 262.3587 13.7354 262.3126 13.7585 261.5291 13.7354 C 260.7455 13.7124 259.3167 13.3438 259.501 12.6292 C 259.6854 11.9148 260.5842 11.9148 261.99 12.0762 C 263.3958 12.2375 267.9128 12.1453 269.4569 12.0762 C 271.001 12.0068 271.1623 11.8687 271.485 12.2605 C 271.8076 12.6523 271.6693 13.0671 271.3006 13.3667 C 270.9319 13.6663 268.6273 13.7354 268.6273 13.7354 L 275.8176 34.8457 C 275.8176 34.8457 275.9098 34.2925 276.9239 31.2505 C 277.9379 28.2083 278.5832 25.3201 279.1363 22.9539 C 279.6894 20.5879 278.491 18.0374 278.0301 17.2385 C 277.5692 16.4395 276.3707 14.3809 276.3707 14.3809 C 276.3707 14.3809 274.8344 11.1543 276.8317 9.4028 C 277.7457 8.6013 278.5956 8.3723 279.3898 8.575 ZM 275.8029 40.0703 C 281.7065 36.6726 285.6813 30.3005 285.6813 23 C 285.6813 19.3916 284.7104 16.01 283.0154 13.1023 C 283.359 14.3447 283.2974 15.3655 283.3767 16.04 C 283.4996 17.085 282.7314 20.1882 282.7314 20.1882 L 279.9659 28.0242 L 275.8029 40.0703 ZM 260.445 41.8867 C 262.2067 42.4041 264.0709 42.6814 266 42.6814 C 268.2645 42.6814 270.4397 42.2986 272.4644 41.595 L 266.3226 24.7056 L 260.445 41.8867 ZM 246.3187 23 C 246.3187 30.7664 250.8167 37.4819 257.3499 40.6836 L 248.0111 15.0027 C 246.9232 17.446 246.3187 20.1526 246.3187 23 Z"
     fill="#ffffff"
     id="path762" /></g><path
   style="opacity:1;fill:#1b4c99;fill-opacity:1;fill-rule:nonzero;stroke:#fbd099;stroke-width:0.09999999;stroke-miterlimit:4;stroke-dasharray:none;stroke-opacity:1"
   d="m 805.81311,997.51231 c 2.53392,-0.22758 6.41231,-0.22438 8.61864,0.007 2.20633,0.2315 0.13312,0.4177 -4.60713,0.41379 -4.74025,-0.004 -6.54543,-0.19332 -4.01151,-0.4209 z"
   id="path4868"
   inkscape:connector-curvature="0" /><path
   style="opacity:1;fill:#00aad4;fill-opacity:1;fill-rule:nonzero;stroke:#fbd099;stroke-width:0.09999999;stroke-miterlimit:4;stroke-dasharray:none;stroke-opacity:1"
   d="m 545.82813,955.20931 c 0,-22.21995 0.14327,-31.30992 0.31836,-20.19995 0.1751,11.10997 0.1751,29.28992 0,40.39989 -0.17509,11.10997 -0.31836,2.02 -0.31836,-20.19994 z"
   id="path4902"
   inkscape:connector-curvature="0" /></svg>